<svg xmlns="http://www.w3.org/2000/svg" xmlns:xlink="http://www.w3.org/1999/xlink" width="500" zoomAndPan="magnify" viewBox="0 0 375 374.999991" height="500" preserveAspectRatio="xMidYMid meet" version="1.0"><defs><clipPath id="f55cb95c37"><path d="M 2.652344 2.652344 L 372.402344 2.652344 L 372.402344 372.402344 L 2.652344 372.402344 Z M 2.652344 2.652344 " clip-rule="nonzero"/></clipPath><clipPath id="435c665acd"><path d="M 215.261719 211.699219 L 303.011719 211.699219 L 303.011719 307.699219 L 215.261719 307.699219 Z M 215.261719 211.699219 " clip-rule="nonzero"/></clipPath><clipPath id="15fd7d9036"><path d="M 205.917969 71.367188 L 312.417969 71.367188 L 312.417969 148.617188 L 205.917969 148.617188 Z M 205.917969 71.367188 " clip-rule="nonzero"/></clipPath><clipPath id="d875e6f8ce"><path d="M 66.058594 62.003906 L 162.058594 62.003906 L 162.058594 158.003906 L 66.058594 158.003906 Z M 66.058594 62.003906 " clip-rule="nonzero"/></clipPath><clipPath id="653185ac74"><path d="M 66.058594 211.699219 L 162.058594 211.699219 L 162.058594 311.449219 L 66.058594 311.449219 Z M 66.058594 211.699219 " clip-rule="nonzero"/></clipPath></defs><g clip-path="url(#f55cb95c37)"><path fill="#000000" d="M 187.523438 372.394531 C 184.285156 372.394531 181.664062 369.773438 181.664062 366.535156 L 181.664062 193.382812 L 8.507812 193.382812 C 5.273438 193.382812 2.652344 190.757812 2.652344 187.523438 C 2.652344 184.285156 5.273438 181.664062 8.507812 181.664062 L 181.664062 181.664062 L 181.664062 8.507812 C 181.664062 5.273438 184.285156 2.652344 187.523438 2.652344 C 190.757812 2.652344 193.382812 5.273438 193.382812 8.507812 L 193.382812 181.664062 L 366.535156 181.664062 C 369.773438 181.664062 372.394531 184.285156 372.394531 187.523438 C 372.394531 190.757812 369.773438 193.382812 366.535156 193.382812 L 193.382812 193.382812 L 193.382812 366.535156 C 193.382812 369.773438 190.757812 372.394531 187.523438 372.394531 Z M 187.523438 372.394531 " fill-opacity="1" fill-rule="nonzero"/></g><path fill="#000000" d="M 187.5 375 C 83.910156 375 0 290.507812 0 187.5 C 0 84.492188 83.910156 0 187.5 0 C 291.089844 0 375 83.910156 375 187.5 C 375 291.089844 290.507812 375 187.5 375 Z M 187.5 11.574219 C 90.277344 11.574219 11.574219 90.277344 11.574219 187.5 C 11.574219 284.722656 90.277344 363.425781 187.5 363.425781 C 284.722656 363.425781 363.425781 284.722656 363.425781 187.5 C 363.425781 90.277344 284.144531 11.574219 187.5 11.574219 Z M 187.5 11.574219 " fill-opacity="1" fill-rule="nonzero"/><g clip-path="url(#435c665acd)"><path fill="#000000" d="M 298.832031 228.402344 L 280.027344 228.402344 L 280.027344 225.460938 C 280.027344 224.558594 279.9375 223.664062 279.761719 222.78125 C 279.582031 221.894531 279.320312 221.035156 278.976562 220.203125 C 278.628906 219.371094 278.203125 218.578125 277.703125 217.828125 C 277.199219 217.078125 276.628906 216.382812 275.988281 215.746094 C 275.351562 215.109375 274.65625 214.539062 273.90625 214.035156 C 273.152344 213.535156 272.359375 213.109375 271.527344 212.765625 C 270.691406 212.417969 269.832031 212.15625 268.945312 211.980469 C 268.058594 211.804688 267.164062 211.714844 266.261719 211.714844 L 252.011719 211.714844 C 251.109375 211.714844 250.214844 211.804688 249.328125 211.980469 C 248.441406 212.15625 247.582031 212.417969 246.746094 212.765625 C 245.910156 213.109375 245.117188 213.535156 244.367188 214.035156 C 243.617188 214.539062 242.921875 215.109375 242.28125 215.746094 C 241.644531 216.382812 241.070312 217.078125 240.570312 217.828125 C 240.066406 218.578125 239.644531 219.371094 239.296875 220.203125 C 238.949219 221.035156 238.6875 221.894531 238.511719 222.78125 C 238.332031 223.664062 238.246094 224.558594 238.242188 225.460938 L 238.242188 228.402344 L 219.441406 228.402344 C 219.164062 228.402344 218.894531 228.429688 218.625 228.484375 C 218.355469 228.535156 218.09375 228.617188 217.839844 228.722656 C 217.585938 228.824219 217.347656 228.953125 217.117188 229.105469 C 216.890625 229.257812 216.679688 229.433594 216.484375 229.625 C 216.289062 229.820312 216.117188 230.03125 215.964844 230.257812 C 215.8125 230.484375 215.683594 230.726562 215.578125 230.980469 C 215.472656 231.230469 215.394531 231.492188 215.339844 231.761719 C 215.289062 232.03125 215.261719 232.300781 215.261719 232.574219 C 215.261719 232.851562 215.289062 233.121094 215.339844 233.390625 C 215.394531 233.660156 215.472656 233.917969 215.578125 234.171875 C 215.683594 234.425781 215.8125 234.667969 215.964844 234.894531 C 216.117188 235.121094 216.289062 235.332031 216.484375 235.527344 C 216.679688 235.71875 216.890625 235.894531 217.117188 236.046875 C 217.347656 236.199219 217.585938 236.324219 217.839844 236.429688 C 218.09375 236.535156 218.355469 236.613281 218.625 236.667969 C 218.894531 236.722656 219.164062 236.75 219.441406 236.75 L 225.707031 236.75 L 225.707031 293.871094 C 225.707031 294.777344 225.796875 295.675781 225.976562 296.566406 C 226.15625 297.457031 226.417969 298.320312 226.769531 299.15625 C 227.117188 299.996094 227.542969 300.792969 228.050781 301.546875 C 228.554688 302.300781 229.128906 302.996094 229.773438 303.636719 C 230.414062 304.28125 231.113281 304.851562 231.871094 305.355469 C 232.625 305.859375 233.421875 306.285156 234.261719 306.632812 C 235.101562 306.976562 235.96875 307.242188 236.859375 307.417969 C 237.75 307.59375 238.652344 307.683594 239.558594 307.683594 L 278.734375 307.683594 C 279.640625 307.679688 280.539062 307.589844 281.429688 307.414062 C 282.320312 307.234375 283.183594 306.972656 284.023438 306.625 C 284.863281 306.277344 285.65625 305.851562 286.414062 305.347656 C 287.167969 304.84375 287.867188 304.273438 288.507812 303.632812 C 289.148438 302.988281 289.722656 302.292969 290.226562 301.539062 C 290.730469 300.785156 291.15625 299.992188 291.507812 299.152344 C 291.855469 298.316406 292.117188 297.453125 292.296875 296.5625 C 292.472656 295.675781 292.5625 294.777344 292.566406 293.871094 L 292.566406 236.75 L 298.832031 236.75 C 299.105469 236.75 299.378906 236.722656 299.648438 236.667969 C 299.917969 236.613281 300.179688 236.535156 300.429688 236.429688 C 300.683594 236.324219 300.925781 236.199219 301.152344 236.046875 C 301.382812 235.894531 301.59375 235.71875 301.785156 235.527344 C 301.980469 235.332031 302.15625 235.121094 302.308594 234.894531 C 302.460938 234.667969 302.589844 234.425781 302.691406 234.171875 C 302.796875 233.917969 302.878906 233.660156 302.929688 233.390625 C 302.984375 233.121094 303.011719 232.851562 303.011719 232.574219 C 303.011719 232.300781 302.984375 232.03125 302.929688 231.761719 C 302.878906 231.492188 302.796875 231.230469 302.691406 230.980469 C 302.589844 230.726562 302.460938 230.484375 302.308594 230.257812 C 302.15625 230.03125 301.980469 229.820312 301.785156 229.625 C 301.59375 229.433594 301.382812 229.257812 301.152344 229.105469 C 300.925781 228.953125 300.683594 228.824219 300.429688 228.722656 C 300.179688 228.617188 299.917969 228.535156 299.648438 228.484375 C 299.378906 228.429688 299.105469 228.402344 298.832031 228.402344 Z M 246.601562 225.460938 C 246.601562 225.105469 246.636719 224.753906 246.703125 224.40625 C 246.773438 224.058594 246.875 223.722656 247.011719 223.394531 C 247.148438 223.066406 247.316406 222.753906 247.511719 222.460938 C 247.710938 222.164062 247.933594 221.890625 248.183594 221.640625 C 248.4375 221.390625 248.710938 221.164062 249.003906 220.96875 C 249.300781 220.773438 249.613281 220.605469 249.941406 220.46875 C 250.269531 220.332031 250.605469 220.230469 250.957031 220.160156 C 251.304688 220.09375 251.65625 220.058594 252.011719 220.058594 L 266.261719 220.058594 C 266.617188 220.058594 266.96875 220.09375 267.316406 220.160156 C 267.664062 220.230469 268.003906 220.332031 268.332031 220.46875 C 268.660156 220.605469 268.972656 220.773438 269.265625 220.96875 C 269.5625 221.164062 269.835938 221.390625 270.085938 221.640625 C 270.339844 221.890625 270.5625 222.164062 270.757812 222.460938 C 270.957031 222.753906 271.125 223.066406 271.261719 223.394531 C 271.394531 223.722656 271.5 224.058594 271.566406 224.40625 C 271.636719 224.753906 271.671875 225.105469 271.671875 225.460938 L 271.671875 228.402344 L 246.601562 228.402344 Z M 284.207031 293.871094 C 284.207031 294.230469 284.167969 294.585938 284.097656 294.9375 C 284.027344 295.289062 283.921875 295.628906 283.785156 295.960938 C 283.648438 296.289062 283.476562 296.605469 283.277344 296.902344 C 283.078125 297.199219 282.851562 297.476562 282.597656 297.730469 C 282.34375 297.984375 282.066406 298.210938 281.769531 298.410156 C 281.472656 298.609375 281.15625 298.777344 280.824219 298.914062 C 280.492188 299.054688 280.152344 299.15625 279.800781 299.230469 C 279.449219 299.300781 279.09375 299.335938 278.734375 299.335938 L 239.558594 299.335938 C 239.199219 299.335938 238.84375 299.300781 238.488281 299.230469 C 238.136719 299.164062 237.792969 299.058594 237.460938 298.921875 C 237.128906 298.785156 236.8125 298.617188 236.511719 298.417969 C 236.214844 298.21875 235.9375 297.992188 235.679688 297.738281 C 235.425781 297.484375 235.199219 297.207031 234.996094 296.910156 C 234.796875 296.609375 234.628906 296.296875 234.488281 295.964844 C 234.351562 295.632812 234.246094 295.289062 234.171875 294.9375 C 234.101562 294.585938 234.066406 294.230469 234.066406 293.871094 L 234.066406 236.75 L 284.207031 236.75 Z M 284.207031 293.871094 " fill-opacity="1" fill-rule="nonzero"/></g><path fill="#000000" d="M 248.691406 246.117188 C 248.414062 246.117188 248.144531 246.144531 247.875 246.195312 C 247.605469 246.25 247.34375 246.328125 247.089844 246.433594 C 246.835938 246.539062 246.597656 246.667969 246.367188 246.820312 C 246.140625 246.972656 245.929688 247.144531 245.734375 247.339844 C 245.539062 247.53125 245.367188 247.742188 245.214844 247.96875 C 245.0625 248.199219 244.933594 248.4375 244.828125 248.691406 C 244.722656 248.945312 244.644531 249.207031 244.589844 249.472656 C 244.539062 249.742188 244.511719 250.015625 244.511719 250.289062 L 244.511719 287.84375 C 244.511719 288.117188 244.539062 288.386719 244.589844 288.65625 C 244.644531 288.925781 244.722656 289.183594 244.828125 289.4375 C 244.933594 289.691406 245.0625 289.933594 245.214844 290.160156 C 245.367188 290.386719 245.539062 290.597656 245.734375 290.792969 C 245.929688 290.984375 246.140625 291.160156 246.367188 291.3125 C 246.597656 291.464844 246.835938 291.59375 247.089844 291.695312 C 247.34375 291.800781 247.605469 291.878906 247.875 291.933594 C 248.144531 291.988281 248.414062 292.015625 248.691406 292.015625 C 248.964844 292.015625 249.234375 291.988281 249.503906 291.933594 C 249.773438 291.878906 250.035156 291.800781 250.289062 291.695312 C 250.542969 291.59375 250.78125 291.464844 251.011719 291.3125 C 251.238281 291.160156 251.449219 290.984375 251.644531 290.792969 C 251.839844 290.597656 252.011719 290.386719 252.164062 290.160156 C 252.316406 289.933594 252.445312 289.691406 252.550781 289.4375 C 252.65625 289.183594 252.734375 288.925781 252.789062 288.65625 C 252.839844 288.386719 252.867188 288.117188 252.867188 287.84375 L 252.867188 250.289062 C 252.867188 250.015625 252.839844 249.742188 252.789062 249.472656 C 252.734375 249.207031 252.65625 248.945312 252.550781 248.691406 C 252.445312 248.4375 252.316406 248.199219 252.164062 247.96875 C 252.011719 247.742188 251.839844 247.53125 251.644531 247.339844 C 251.449219 247.144531 251.238281 246.972656 251.011719 246.820312 C 250.78125 246.667969 250.542969 246.539062 250.289062 246.433594 C 250.035156 246.328125 249.773438 246.25 249.503906 246.195312 C 249.234375 246.144531 248.964844 246.117188 248.691406 246.117188 Z M 248.691406 246.117188 " fill-opacity="1" fill-rule="nonzero"/><path fill="#000000" d="M 269.582031 246.117188 C 269.308594 246.117188 269.035156 246.144531 268.765625 246.195312 C 268.5 246.25 268.238281 246.328125 267.984375 246.433594 C 267.730469 246.539062 267.488281 246.667969 267.261719 246.820312 C 267.03125 246.972656 266.820312 247.144531 266.628906 247.339844 C 266.433594 247.53125 266.261719 247.742188 266.109375 247.96875 C 265.957031 248.199219 265.828125 248.4375 265.722656 248.691406 C 265.617188 248.945312 265.539062 249.207031 265.484375 249.472656 C 265.429688 249.742188 265.402344 250.015625 265.402344 250.289062 L 265.402344 287.84375 C 265.402344 288.117188 265.429688 288.386719 265.484375 288.65625 C 265.539062 288.925781 265.617188 289.183594 265.722656 289.4375 C 265.828125 289.691406 265.957031 289.933594 266.109375 290.160156 C 266.261719 290.386719 266.433594 290.597656 266.628906 290.792969 C 266.820312 290.984375 267.03125 291.160156 267.261719 291.3125 C 267.488281 291.464844 267.730469 291.59375 267.984375 291.695312 C 268.238281 291.800781 268.5 291.878906 268.765625 291.933594 C 269.035156 291.988281 269.308594 292.015625 269.582031 292.015625 C 269.855469 292.015625 270.128906 291.988281 270.398438 291.933594 C 270.667969 291.878906 270.929688 291.800781 271.179688 291.695312 C 271.433594 291.59375 271.675781 291.464844 271.902344 291.3125 C 272.132812 291.160156 272.34375 290.984375 272.535156 290.792969 C 272.730469 290.597656 272.90625 290.386719 273.058594 290.160156 C 273.210938 289.933594 273.339844 289.691406 273.441406 289.4375 C 273.546875 289.183594 273.628906 288.925781 273.679688 288.65625 C 273.734375 288.386719 273.761719 288.117188 273.761719 287.84375 L 273.761719 250.289062 C 273.761719 250.015625 273.734375 249.742188 273.679688 249.472656 C 273.628906 249.207031 273.546875 248.945312 273.441406 248.691406 C 273.339844 248.4375 273.210938 248.199219 273.058594 247.96875 C 272.90625 247.742188 272.730469 247.53125 272.535156 247.339844 C 272.34375 247.144531 272.132812 246.972656 271.902344 246.820312 C 271.675781 246.667969 271.433594 246.539062 271.179688 246.433594 C 270.929688 246.328125 270.667969 246.25 270.398438 246.195312 C 270.128906 246.144531 269.855469 246.117188 269.582031 246.117188 Z M 269.582031 246.117188 " fill-opacity="1" fill-rule="nonzero"/><g clip-path="url(#15fd7d9036)"><path fill="#000000" d="M 308.976562 140.507812 C 308.976562 142.019531 307.71875 143.25 306.109375 143.253906 L 259.164062 145.1875 L 212.148438 143.25 C 210.609375 143.25 209.351562 142.019531 209.351562 140.507812 L 209.351562 82.988281 C 209.351562 81.46875 210.609375 80.234375 212.148438 80.234375 L 214.199219 80.234375 L 214.199219 138.5 C 214.320312 139.703125 215.273438 140.136719 216.007812 140.210938 C 216.160156 140.226562 231.714844 139.417969 243.796875 139.371094 C 253.664062 139.371094 258.9375 141.433594 259.160156 141.433594 C 259.390625 141.433594 264.660156 139.371094 274.84375 139.371094 C 286.609375 139.417969 302.164062 140.210938 302.316406 140.210938 C 303.460938 140.195312 304.089844 139.355469 304.125 138.5 L 304.125 80.234375 L 306.179688 80.234375 C 307.71875 80.234375 308.976562 81.46875 308.976562 82.988281 Z M 254.601562 136.816406 C 251.953125 136.355469 248.277344 135.949219 243.46875 135.949219 C 236.894531 135.972656 229.203125 136.226562 223.589844 136.449219 C 229.113281 134.773438 236.945312 132.820312 243.554688 132.789062 C 248.664062 132.789062 252.28125 134.859375 254.601562 136.816406 Z M 217.636719 81.304688 C 221.402344 79.792969 234.539062 74.796875 243.449219 74.796875 C 252.132812 74.894531 256.308594 78.683594 257.445312 79.925781 L 257.445312 134.730469 C 254.683594 132.226562 250.074219 129.363281 243.464844 129.363281 C 233.988281 129.40625 222.507812 133.0625 217.636719 134.78125 Z M 294.75 136.453125 C 289.09375 136.226562 281.300781 135.972656 274.53125 135.949219 C 269.910156 135.949219 266.347656 136.347656 263.75 136.804688 C 266.078125 134.851562 269.710938 132.789062 274.851562 132.789062 C 281.417969 132.816406 289.234375 134.773438 294.75 136.453125 Z M 260.882812 79.929688 C 262.03125 78.675781 266.238281 74.894531 275.109375 74.796875 C 283.816406 74.796875 296.925781 79.792969 300.6875 81.304688 L 300.6875 134.78125 C 295.816406 133.0625 284.320312 129.40625 274.773438 129.363281 C 268.21875 129.363281 263.640625 132.222656 260.882812 134.722656 Z M 306.179688 76.808594 L 298.558594 76.808594 C 292.761719 74.671875 282.570312 71.375 274.839844 71.375 C 266.261719 71.46875 261.382812 74.800781 259.195312 76.808594 L 259.128906 76.808594 C 256.921875 74.800781 251.988281 71.46875 243.21875 71.371094 C 235.679688 71.371094 225.535156 74.671875 219.761719 76.808594 L 212.148438 76.808594 C 208.714844 76.808594 205.917969 79.582031 205.917969 82.988281 L 205.917969 140.503906 C 205.917969 143.90625 208.714844 146.671875 212.074219 146.671875 C 212.078125 146.671875 259.09375 148.613281 259.09375 148.613281 C 259.117188 148.613281 259.140625 148.613281 259.164062 148.613281 C 259.1875 148.613281 259.210938 148.613281 259.234375 148.613281 L 306.179688 146.675781 C 309.613281 146.675781 312.410156 143.90625 312.410156 140.503906 L 312.410156 82.988281 C 312.410156 79.582031 309.613281 76.808594 306.179688 76.808594 " fill-opacity="1" fill-rule="nonzero"/></g><g clip-path="url(#d875e6f8ce)"><path fill="#000000" d="M 114.023438 62.003906 C 114.050781 62.003906 114.074219 62.003906 114.097656 62.003906 C 116.484375 62.015625 118.652344 62.992188 120.222656 64.566406 C 121.800781 66.144531 122.777344 68.324219 122.78125 70.730469 L 122.785156 70.730469 L 122.785156 101.273438 L 153.328125 101.273438 C 155.730469 101.273438 157.914062 102.257812 159.496094 103.835938 C 161.066406 105.410156 162.046875 107.582031 162.058594 109.96875 C 162.058594 109.996094 162.058594 110.019531 162.058594 110.042969 C 162.046875 112.429688 161.066406 114.59375 159.496094 116.167969 C 157.917969 117.746094 155.734375 118.722656 153.328125 118.722656 L 153.328125 118.730469 L 122.785156 118.730469 L 122.785156 149.273438 C 122.785156 151.675781 121.804688 153.859375 120.222656 155.441406 C 118.648438 157.011719 116.480469 157.992188 114.089844 158 C 114.066406 158.003906 114.039062 158.003906 114.015625 158 C 111.628906 157.992188 109.464844 157.011719 107.890625 155.441406 C 106.316406 153.863281 105.335938 151.679688 105.335938 149.273438 L 105.328125 149.273438 L 105.328125 118.730469 L 74.785156 118.730469 C 72.382812 118.730469 70.203125 117.75 68.621094 116.167969 C 67.046875 114.59375 66.066406 112.425781 66.058594 110.035156 C 66.058594 110.011719 66.058594 109.984375 66.058594 109.960938 C 66.070312 107.574219 67.046875 105.410156 68.621094 103.835938 C 70.199219 102.257812 72.378906 101.28125 74.785156 101.28125 L 74.785156 101.273438 L 105.328125 101.273438 L 105.328125 70.730469 C 105.328125 68.328125 106.3125 66.144531 107.890625 64.566406 C 109.464844 62.992188 111.636719 62.011719 114.023438 62.003906 " fill-opacity="1" fill-rule="nonzero"/></g><g clip-path="url(#653185ac74)"><path fill="#000000" d="M 139.90625 300.820312 L 139.90625 305.195312 C 139.90625 308.636719 142.675781 311.425781 146.089844 311.425781 C 149.507812 311.425781 152.277344 308.636719 152.277344 305.195312 L 152.277344 287.152344 C 152.277344 287.128906 152.277344 287.109375 152.277344 287.085938 C 152.257812 285.332031 151.507812 283.597656 150.074219 282.382812 C 148.929688 281.414062 147.539062 280.933594 146.152344 280.921875 C 146.132812 280.921875 146.113281 280.921875 146.089844 280.921875 L 128.171875 280.921875 C 124.753906 280.921875 121.984375 283.710938 121.984375 287.152344 C 121.984375 290.34375 124.371094 292.976562 127.449219 293.339844 C 123.316406 295.027344 118.800781 295.960938 114.070312 295.960938 C 94.40625 295.960938 78.441406 279.882812 78.441406 260.082031 C 78.441406 240.28125 94.40625 224.203125 114.070312 224.203125 C 133.734375 224.203125 149.699219 240.28125 149.699219 260.082031 C 149.699219 263.519531 152.472656 266.3125 155.886719 266.3125 C 159.300781 266.3125 162.074219 263.519531 162.074219 260.082031 C 162.074219 233.402344 140.5625 211.742188 114.070312 211.742188 C 87.574219 211.742188 66.066406 233.402344 66.066406 260.082031 C 66.066406 286.757812 87.574219 308.417969 114.070312 308.417969 C 123.578125 308.417969 132.445312 305.628906 139.90625 300.820312 Z M 139.90625 300.820312 " fill-opacity="1" fill-rule="evenodd"/></g></svg>